<?xml version="1.0" standalone="no"?>
<!DOCTYPE svg PUBLIC "-//W3C//DTD SVG 20010904//EN"
 "http://www.w3.org/TR/2001/REC-SVG-20010904/DTD/svg10.dtd">
<svg version="1.0" xmlns="http://www.w3.org/2000/svg"
 width="236.000000pt" height="260.000000pt" viewBox="0 0 236.000000 260.000000"
 preserveAspectRatio="xMidYMid meet">
<metadata>
Created by potrace 1.10, written by Peter Selinger 2001-2011
</metadata>
<g transform="translate(0.000000,260.000000) scale(0.100000,-0.100000)"
fill="#02b758" stroke="none">
<path d="M1033 2575 c-62 -17 -868 -499 -926 -554 -21 -20 -52 -65 -70 -101
l-32 -65 -3 -553 -2 -553 36 -70 c71 -134 105 -160 539 -405 215 -121 410
-228 435 -238 70 -29 221 -33 290 -9 30 10 242 126 470 256 330 189 424 247
459 285 46 49 97 144 107 200 3 17 10 32 15 32 5 0 9 225 9 525 0 301 -4 525
-9 525 -5 0 -12 12 -15 26 -11 41 -55 105 -115 164 -44 44 -140 104 -461 291
-238 138 -424 240 -452 247 -62 16 -210 14 -275 -3z m265 -226 c18 -6 180 -96
360 -200 291 -169 334 -197 393 -258 101 -104 99 -91 99 -566 0 -444 -3 -474
-63 -574 -18 -29 -47 -65 -66 -79 -66 -51 -716 -413 -770 -428 -63 -19 -135
-14 -209 14 -26 10 -189 98 -362 196 -350 198 -398 234 -453 346 l-32 65 -3
395 c-2 275 0 412 8 450 14 63 52 144 83 178 38 41 730 450 788 467 59 16 171
14 227 -6z"/>
<path d="M1073 2159 c-40 -12 -578 -333 -616 -368 -16 -14 -39 -44 -50 -66
-21 -39 -22 -53 -25 -417 l-3 -377 25 -48 c43 -85 104 -131 376 -283 140 -79
275 -149 299 -157 54 -16 137 -17 180 -2 40 14 563 310 607 344 18 14 46 53
63 86 l31 62 0 383 0 382 -40 53 c-22 30 -53 64 -69 76 -41 33 -530 314 -571
329 -40 15 -160 17 -207 3z m387 -849 l0 -290 -285 0 -285 0 0 290 0 290 285
0 285 0 0 -290z"/>
</g>
</svg>
